<svg width="44" height="44" viewBox="0 0 44 44" fill="none" xmlns="http://www.w3.org/2000/svg">
<rect width="44" height="44" rx="22" fill="white"/>
<g clip-path="url(#clip0)">
<path d="M33.2177 19.9368C32.7865 19.9368 32.4365 20.2868 32.4365 20.718V29.5644L26.1869 32.0642V23.8428C26.1869 23.4116 25.8369 23.0616 25.4057 23.0616C24.9745 23.0616 24.6245 23.4116 24.6245 23.8428V32.0627L18.3749 29.5628V17.1855L21.995 18.6338C22.3903 18.7932 22.8496 18.5994 23.0105 18.1979C23.1715 17.7979 22.9762 17.3433 22.5746 17.1823L17.8984 15.3106C17.8984 15.3106 17.8984 15.3106 17.8968 15.3106L17.8843 15.3059C17.6984 15.2309 17.4906 15.2309 17.3047 15.3059L17.2906 15.3106C17.2906 15.3106 17.2906 15.3106 17.289 15.3106L9.49108 18.4307C9.19579 18.5494 9.00049 18.8353 9.00049 19.1556V33.2173C9.00049 33.4766 9.13017 33.7188 9.34422 33.8641C9.47546 33.9532 9.62701 33.9985 9.78169 33.9985C9.88012 33.9985 9.97855 33.9797 10.0723 33.9422L17.5937 30.9346L25.101 33.9375C25.101 33.9375 25.101 33.9375 25.1026 33.9375L25.1167 33.9438C25.3026 34.0188 25.5104 34.0188 25.6963 33.9438L25.7104 33.9375C25.7104 33.9375 25.7104 33.9375 25.7119 33.9375L33.5099 30.819C33.8036 30.6987 33.9989 30.4128 33.9989 30.0925V20.718C33.9989 20.2868 33.6489 19.9368 33.2177 19.9368ZM16.8125 29.5628L10.5629 32.0627V19.6837L16.8125 17.1839V29.5628Z" fill="url(#paint0_linear)"/>
<path d="M28.5306 12.1249C27.2385 12.1249 26.187 13.1764 26.187 14.4685C26.187 15.7606 27.2385 16.8121 28.5306 16.8121C29.8227 16.8121 30.8742 15.7606 30.8742 14.4685C30.8742 13.1764 29.8227 12.1249 28.5306 12.1249ZM28.5306 15.2497C28.0994 15.2497 27.7494 14.8997 27.7494 14.4685C27.7494 14.0373 28.0994 13.6873 28.5306 13.6873C28.9618 13.6873 29.3118 14.0373 29.3118 14.4685C29.3118 14.8997 28.9618 15.2497 28.5306 15.2497Z" fill="url(#paint1_linear)"/>
<path d="M28.5309 9C25.5155 9 23.0625 11.453 23.0625 14.4684C23.0625 17.2745 27.4497 22.2445 27.9497 22.8023C28.0981 22.9663 28.309 23.0616 28.5309 23.0616C28.7528 23.0616 28.9637 22.9663 29.1121 22.8023C29.6121 22.2445 33.9993 17.2745 33.9993 14.4684C33.9993 11.453 31.5463 9 28.5309 9ZM28.5309 21.0883C26.8248 19.065 24.6249 15.9589 24.6249 14.4684C24.6249 12.3154 26.3779 10.5624 28.5309 10.5624C30.6839 10.5624 32.4369 12.3154 32.4369 14.4684C32.4369 15.9574 30.237 19.065 28.5309 21.0883Z" fill="url(#paint2_linear)"/>
</g>
<defs>
<linearGradient id="paint0_linear" x1="21.4997" y1="15.2496" x2="21.4997" y2="34" gradientUnits="userSpaceOnUse">
<stop stop-color="#813469"/>
<stop offset="1" stop-color="#6BC6DF"/>
</linearGradient>
<linearGradient id="paint1_linear" x1="28.5306" y1="12.1249" x2="28.5306" y2="16.8121" gradientUnits="userSpaceOnUse">
<stop stop-color="#813469"/>
<stop offset="1" stop-color="#6BC6DF"/>
</linearGradient>
<linearGradient id="paint2_linear" x1="28.5309" y1="9" x2="28.5309" y2="23.0616" gradientUnits="userSpaceOnUse">
<stop stop-color="#813469"/>
<stop offset="1" stop-color="#6BC6DF"/>
</linearGradient>
<clipPath id="clip0">
<rect width="25" height="25" fill="white" transform="translate(9 9)"/>
</clipPath>
</defs>
</svg>
