<svg width="55" height="27" viewBox="0 0 55 27" fill="none" xmlns="http://www.w3.org/2000/svg">
<path d="M54.3699 11.9792C54.3692 11.9786 54.3687 11.9778 54.3679 11.9772L43.1419 0.805306C42.3009 -0.0316183 40.9406 -0.0285038 40.1035 0.812609C39.2665 1.65362 39.2697 3.0139 40.1107 3.85093L47.6478 11.3516H2.14844C0.961856 11.3516 0 12.3134 0 13.5C0 14.6866 0.961856 15.6484 2.14844 15.6484H47.6477L40.1108 23.1491C39.2698 23.9861 39.2666 25.3464 40.1036 26.1874C40.9407 27.0286 42.3011 27.0315 43.142 26.1947L54.368 15.0228C54.3687 15.0222 54.3692 15.0214 54.37 15.0208C55.2114 14.1809 55.2087 12.8163 54.3699 11.9792Z" fill="url(#paint0_linear)"/>
<defs>
<linearGradient id="paint0_linear" x1="0" y1="13.5" x2="55" y2="13.5" gradientUnits="userSpaceOnUse">
<stop stop-color="#80D8FF"/>
<stop offset="0.16" stop-color="#88D1FF"/>
<stop offset="0.413" stop-color="#9FBEFE"/>
<stop offset="0.725" stop-color="#C4A0FD"/>
<stop offset="1" stop-color="#EA80FC"/>
</linearGradient>
</defs>
</svg>
