<svg width="36" height="36" viewBox="0 0 36 36" fill="none" xmlns="http://www.w3.org/2000/svg">
<circle cx="18" cy="18" r="18" fill="url(#paint0_linear)"/>
<g clip-path="url(#clip0)">
<path d="M22.0155 9H13.9842C13.386 9 12.8994 9.4866 12.8994 10.0845V10.8H23.1V10.0845C23.1 9.4866 22.6134 9 22.0155 9ZM19.5 10.5H16.5C16.3345 10.5 16.2001 10.3656 16.2001 10.2C16.2001 10.0344 16.3345 9.90004 16.5 9.90004H19.5C19.6656 9.90004 19.8 10.0344 19.8 10.2C19.8 10.3656 19.6656 10.5 19.5 10.5ZM21.6 10.5H21.3C21.1344 10.5 21 10.3656 21 10.2C21 10.0344 21.1344 9.90004 21.3 9.90004H21.6C21.7656 9.90004 21.9 10.0344 21.9 10.2C21.9 10.3656 21.7656 10.5 21.6 10.5Z" fill="white"/>
<path d="M18.3725 24.9001H17.6276C17.5022 24.9001 17.3999 25.0021 17.3999 25.1279V25.2728C17.3999 25.3982 17.5019 25.5002 17.6276 25.5002H18.3725C18.4979 25.5002 18.5999 25.3982 18.5999 25.2728V25.1279C18.6002 25.0021 18.4979 24.9001 18.3725 24.9001Z" fill="white"/>
<path d="M23.1004 11.3999H12.9004V23.3999H23.1004V11.3999Z" fill="white"/>
<path d="M12.9004 24V25.9155C12.9004 26.5134 13.387 27 13.9849 27H22.0162C22.6141 27 23.1007 26.5134 23.1007 25.9155V24H12.9004ZM19.2004 25.2726C19.2004 25.7289 18.8293 26.1 18.373 26.1H17.6281C17.1718 26.1 16.8004 25.7289 16.8004 25.2726V25.1277C16.8004 24.6714 17.1718 24.3 17.6281 24.3H18.373C18.8293 24.3 19.2004 24.6714 19.2004 25.1277V25.2726Z" fill="white"/>
</g>
<defs>
<linearGradient id="paint0_linear" x1="18" y1="0" x2="18" y2="36" gradientUnits="userSpaceOnUse">
<stop stop-color="#813468"/>
<stop offset="0.307292" stop-color="#7A618D"/>
<stop offset="0.307392" stop-color="#7A618D"/>
<stop offset="0.697917" stop-color="#70A3C2"/>
<stop offset="0.760417" stop-color="#70A3C2"/>
<stop offset="1" stop-color="#6BC6DF"/>
</linearGradient>
<clipPath id="clip0">
<rect width="18" height="18" fill="white" transform="translate(9 9)"/>
</clipPath>
</defs>
</svg>
